# xmcd
#
# Track frame offsets:
#	150
#	12345
#	22620
#	36045
#	48045
#	60420
#	72135
#	84998
#	97876
#	108976
#	119109
#	130674
#
# Disc length: 1884 seconds
#
# Revision: 0
# Processed by: cddbd v1.5.2PL0 Copyright (c) Steve Scherf et al.
# Submitted via: audiograbber 1.83.01
#
DISCID=86075a0c
DTITLE=Bobby Hicks - Texas Crapshooter
DYEAR=1978
DGENRE=Fiddle
TTITLE0=Panhandle Rag
TTITLE1=Goodbye Liza Jane
TTITLE2=Maiden's Prayer
TTITLE3=Cherokee Swing
TTITLE4=Texas Crapshooter
TTITLE5=Big Beaver
TTITLE6=Snowflake Breakdown
TTITLE7=Scotland
TTITLE8=Big Mon
TTITLE9=East Tennessee Blues
TTITLE10=Cheyenne
TTITLE11=Paddy on the Turnpike
EXTD=
EXTT0=
EXTT1=
EXTT2=
EXTT3=
EXTT4=
EXTT5=
EXTT6=
EXTT7=
EXTT8=
EXTT9=
EXTT10=
EXTT11=
PLAYORDER=
